<svg width="66" height="54" viewBox="0 0 66 54" fill="none" xmlns="http://www.w3.org/2000/svg">
<g style="mix-blend-mode:luminosity" clip-path="url(#clip0_205_183)">
<path d="M13.7084 0C9.94254 0 7.15584 3.38426 7.28062 7.05441C7.40051 10.5803 7.24479 15.1473 6.12511 18.8714C5.00208 22.6064 3.10252 24.9724 0 25.2762V28.7058C3.10252 29.0096 5.00208 31.3756 6.12511 35.1109C7.24479 38.835 7.40051 43.4014 7.28062 46.9276C7.15584 50.5972 9.94254 53.982 13.7089 53.982H52.2965C56.0626 53.982 58.8485 50.5977 58.7238 46.9276C58.6041 43.4017 58.7596 38.835 59.8793 35.1109C61.0031 31.3759 62.8975 29.0094 66 28.7058V25.2762C62.8975 24.9724 61.0031 22.6064 59.8795 18.8714C58.7596 15.1478 58.6041 10.5806 58.7238 7.05441C58.8485 3.38479 56.0626 0 52.2965 0H13.7079H13.7084ZM44.7459 33.2293C44.7459 38.2831 41.0747 41.3479 34.9821 41.3479H24.6103C24.3136 41.3478 24.0292 41.2267 23.8194 41.0113C23.6097 40.796 23.4919 40.5039 23.4919 40.1993V13.7827C23.4918 13.6319 23.5208 13.4825 23.577 13.3431C23.6332 13.2037 23.7155 13.0771 23.8194 12.9704C23.9233 12.8637 24.0466 12.7791 24.1824 12.7213C24.3181 12.6636 24.4636 12.6339 24.6105 12.6339H34.9228C40.003 12.6339 43.337 15.4596 43.337 19.7976C43.337 22.8425 41.094 25.5685 38.2367 26.0457V26.2048C42.1268 26.6429 44.7459 29.4088 44.7459 33.2293ZM33.8508 16.2749H27.9373V24.8514H32.9183C36.7684 24.8514 38.8918 23.2594 38.8918 20.4139C38.8918 17.7475 37.0657 16.2749 33.8508 16.2749ZM27.9373 28.2544V37.7058H34.0686C38.0771 37.7058 40.201 36.0543 40.201 32.9503C40.201 29.8458 38.0181 28.2539 33.8108 28.2539H27.9373V28.2544Z" fill="#7E13F8"/>
</g>
<defs>
<clipPath id="clip0_205_183">
<rect width="66" height="54" fill="white"/>
</clipPath>
</defs>
</svg>
