<svg width="44" height="54" viewBox="0 0 44 54" fill="none" xmlns="http://www.w3.org/2000/svg">
<path d="M44 13.5V47.25C44 48.1816 43.8237 49.0518 43.4712 49.8604C43.1186 50.6689 42.6338 51.3809 42.0168 51.9961C41.3998 52.6113 40.6771 53.0947 39.8486 53.4463C39.02 53.7979 38.1474 53.9824 37.2308 54H6.76923C5.83494 54 4.96234 53.8242 4.15144 53.4727C3.34054 53.1211 2.6266 52.6377 2.00962 52.0225C1.39263 51.4072 0.907853 50.6953 0.555288 49.8867C0.202724 49.0781 0.0176282 48.1992 0 47.25V13.5H6.76923V10.125C6.76923 8.73633 7.03365 7.42676 7.5625 6.19629C8.09135 4.96582 8.82292 3.89355 9.75721 2.97949C10.6915 2.06543 11.7668 1.34473 12.9832 0.817383C14.1995 0.290039 15.5128 0.0175781 16.9231 0C18.7564 0 20.4575 0.457031 22.0264 1.37109C23.5954 0.457031 25.2788 0 27.0769 0C28.4696 0 29.7829 0.263672 31.0168 0.791016C32.2508 1.31836 33.3261 2.04785 34.2428 2.97949C35.1595 3.91113 35.8822 4.9834 36.4111 6.19629C36.9399 7.40918 37.2131 8.71875 37.2308 10.125V13.5H44ZM33.8462 10.125C33.8462 9.21094 33.6699 8.34082 33.3173 7.51465C32.9647 6.68848 32.48 5.97656 31.863 5.37891C31.246 4.78125 30.5232 4.29785 29.6947 3.92871C28.8662 3.55957 27.9936 3.375 27.0769 3.375C26.2837 3.375 25.5345 3.50684 24.8293 3.77051C25.3405 4.40332 25.746 5.02734 26.0457 5.64258C26.3454 6.25781 26.5657 6.87305 26.7067 7.48828C26.8478 8.10352 26.9447 8.72754 26.9976 9.36035C27.0505 9.99316 27.0769 10.6699 27.0769 11.3906V13.5H33.8462V10.125ZM10.1538 13.5H23.6923V10.125C23.6923 9.21094 23.516 8.34082 23.1635 7.51465C22.8109 6.68848 22.3261 5.97656 21.7091 5.37891C21.0921 4.78125 20.3694 4.29785 19.5409 3.92871C18.7123 3.55957 17.8397 3.375 16.9231 3.375C15.9888 3.375 15.1162 3.55078 14.3053 3.90234C13.4944 4.25391 12.7804 4.7373 12.1635 5.35254C11.5465 5.96777 11.0617 6.68848 10.7091 7.51465C10.3566 8.34082 10.1715 9.21094 10.1538 10.125V13.5ZM31.3606 50.625C30.7612 49.5703 30.4615 48.4453 30.4615 47.25V16.875H3.38462V47.25C3.38462 47.7246 3.47276 48.1641 3.64904 48.5684C3.82532 48.9727 4.0633 49.3242 4.36298 49.623C4.66266 49.9219 5.02404 50.168 5.44712 50.3613C5.87019 50.5547 6.3109 50.6426 6.76923 50.625H31.3606ZM40.6154 16.875H33.8462V47.25C33.8462 47.7246 33.9343 48.1641 34.1106 48.5684C34.2869 48.9727 34.5248 49.3242 34.8245 49.623C35.1242 49.9219 35.4856 50.168 35.9087 50.3613C36.3317 50.5547 36.7724 50.6426 37.2308 50.625C37.7067 50.625 38.1474 50.5371 38.5529 50.3613C38.9583 50.1855 39.3109 49.9482 39.6106 49.6494C39.9103 49.3506 40.1571 48.9902 40.351 48.5684C40.5449 48.1465 40.633 47.707 40.6154 47.25V16.875Z" fill="white"/>
</svg>
