<svg width="48" height="68" viewBox="0 0 48 68" fill="none" xmlns="http://www.w3.org/2000/svg">
<g style="mix-blend-mode:luminosity" clip-path="url(#clip0_205_162)">
<path d="M23.9707 67.8282L4.43662 62.3803L0.0834351 13.3299H47.9166L43.5589 62.3728L23.9707 67.8282Z" fill="#264DE4"/>
<path d="M39.8282 59.2499L43.5519 17.3404H24V63.6582L39.8282 59.2499Z" fill="#2965F1"/>
<path d="M10.0629 35.5325L10.5996 41.5484H24V35.5325H10.0629ZM8.98444 23.3564L9.52875 29.3722H24V23.3564H8.98444ZM24 51.1563L23.9737 51.1633L17.3047 49.3543L16.8784 44.5564H10.8671L11.706 54.0022L23.9724 57.4229L24 57.4154V51.1563Z" fill="#EBEBEB"/>
<path d="M11.3408 0H18.5933V3.047H14.3738V6.09401H18.5936V9.14082H11.3408V0ZM20.0439 0H27.2966V2.64955H23.0769V3.17942H27.2966V9.27343H20.0441V6.49108H24.2638V5.96121H20.0438L20.0439 0ZM28.7473 0H36V2.64955H31.7803V3.17942H36V9.27343H28.7473V6.49108H32.967V5.96121H28.7475V0H28.7473Z" fill="white"/>
<path d="M37.8988 35.5325L38.9797 23.3564H23.9794V29.3722H32.4172L31.8724 35.5325H23.9794V41.5484H31.3532L30.6579 49.3505L23.9792 51.1614V57.4201L36.2554 54.0022L36.3454 52.9858L37.7528 37.148L37.8988 35.5325Z" fill="white"/>
</g>
<defs>
<clipPath id="clip0_205_162">
<rect width="48" height="68" fill="white"/>
</clipPath>
</defs>
</svg>
