<svg width="53" height="53" viewBox="0 0 53 53" fill="none" xmlns="http://www.w3.org/2000/svg">
<path d="M22.5 37.3982C21.2 37.254 19.9213 36.9582 18.69 36.517C18.7275 35.632 18.75 34.7095 18.75 33.7495V32.4857C19.9125 33.0407 21.1763 33.427 22.5 33.6182V24.3745C22.5 22.8826 23.0926 21.4519 24.1475 20.397C25.2024 19.3421 26.6332 18.7495 28.125 18.7495H37.3688C37.0697 16.6715 36.2766 14.6957 35.0559 12.9877C33.8353 11.2797 32.2227 9.88941 30.3536 8.93356C28.4845 7.9777 26.4134 7.48414 24.3141 7.4943C22.2148 7.50446 20.1485 8.01805 18.2887 8.99196C17.9921 7.76546 17.5036 6.59351 16.8413 5.51946C19.2723 4.30606 21.9603 3.69759 24.6769 3.74579C27.3935 3.79399 30.0583 4.49743 32.4447 5.79631C34.8311 7.09519 36.8687 8.9511 38.384 11.2063C39.8994 13.4614 40.8479 16.0492 41.1488 18.7495H46.875C48.3668 18.7495 49.7976 19.3421 50.8525 20.397C51.9074 21.4519 52.5 22.8826 52.5 24.3745V43.1245C52.5 44.6163 51.9074 46.047 50.8525 47.1019C49.7976 48.1568 48.3668 48.7495 46.875 48.7495H28.125C26.6332 48.7495 25.2024 48.1568 24.1475 47.1019C23.0926 46.047 22.5 44.6163 22.5 43.1245V37.3982ZM41.1488 22.4995C40.7227 26.3042 39.016 29.8511 36.3089 32.5583C33.6017 35.2655 30.0547 36.9721 26.25 37.3982V43.1245C26.25 43.6217 26.4475 44.0987 26.7992 44.4503C27.1508 44.8019 27.6277 44.9995 28.125 44.9995H46.875C47.3723 44.9995 47.8492 44.8019 48.2008 44.4503C48.5525 44.0987 48.75 43.6217 48.75 43.1245V24.3745C48.75 23.8772 48.5525 23.4003 48.2008 23.0486C47.8492 22.697 47.3723 22.4995 46.875 22.4995H41.1488ZM37.3688 22.4995H28.125C27.6277 22.4995 27.1508 22.697 26.7992 23.0486C26.4475 23.4003 26.25 23.8772 26.25 24.3745V33.6182C29.0549 33.2128 31.6534 31.9108 33.6574 29.9069C35.6614 27.9029 36.9633 25.3044 37.3688 22.4995ZM14.2313 24.6032C13.8375 23.1557 13.2 21.7045 12.105 20.5907C13.875 18.9145 15 16.2445 15 13.1245C15 10.5107 14.4713 8.71446 13.515 7.27821C13.0907 6.66048 12.6003 6.09087 12.0525 5.57946C11.8426 5.37677 11.63 5.17675 11.415 4.97946C11.1863 4.76571 10.9763 4.57071 10.7025 4.29696C10.14 3.73446 10.0763 3.28446 10.0763 3.04821C10.0769 2.91689 10.0984 2.78651 10.14 2.66196C10.3115 2.29118 10.3571 1.87456 10.2701 1.47544C10.183 1.07632 9.96801 0.716553 9.65773 0.450845C9.34746 0.185137 8.9589 0.0280274 8.55114 0.00340924C8.14338 -0.021209 7.73874 0.088011 7.39875 0.31446L7.39125 0.31821L7.38 0.32571L7.34625 0.34821L7.23375 0.42321C6.67125 0.824426 6.12931 1.25372 5.61 1.70946C4.6725 2.53821 3.45 3.76446 2.58375 5.22696C1.82756 6.43944 1.22066 7.73886 0.77625 9.09696C0.32625 10.4432 0 11.902 0 13.1245C0 16.2445 1.125 18.9107 2.895 20.5945C1.8 21.7045 1.1625 23.1557 0.76875 24.607C1.67638e-07 27.427 0 30.9145 0 33.6107V33.7495C0 41.467 1.44375 46.0495 3.07875 48.7757C3.9 50.1407 4.755 51.022 5.47125 51.577C5.8529 51.8746 6.26826 52.1264 6.70875 52.327C6.96349 52.42 7.22967 52.478 7.5 52.4995C7.815 52.4995 8.29125 52.327 8.29125 52.327C8.73174 52.1264 9.1471 51.8746 9.52875 51.577C10.2413 51.022 11.1037 50.1407 11.9212 48.7757C13.5562 46.0532 15 41.467 15 33.7495V33.6145C15 30.9145 15 27.4307 14.2313 24.6032ZM5.57625 23.2157C6 22.7882 6.56625 22.4995 7.5 22.4995C8.4375 22.4995 9 22.792 9.42375 23.212C9.89625 23.6882 10.305 24.4607 10.6125 25.5895C11.235 27.8807 11.25 30.8882 11.25 33.7495C11.25 41.032 9.88125 44.887 8.70375 46.8482C8.25375 47.5982 7.83 48.082 7.5 48.3857C7.02849 47.9323 6.62326 47.4147 6.29625 46.8482C5.11875 44.8832 3.75 41.032 3.75 33.7495C3.75 30.8882 3.765 27.8807 4.3875 25.5895C4.695 24.4645 5.10375 23.692 5.57625 23.2157ZM7.5 18.7495C6.05625 18.7495 3.75 17.1445 3.75 13.1245C3.75 12.4757 3.945 11.4482 4.335 10.2857C4.6904 9.18822 5.18038 8.13898 5.79375 7.16196C6.12 6.61071 6.54375 6.07446 7.00125 5.58321C7.26 6.04071 7.60125 6.50196 8.05125 6.95196C8.325 7.22571 8.68125 7.55571 8.985 7.84071L9.45 8.27571C9.84375 8.65821 10.1475 8.99196 10.3912 9.36321C10.8412 10.0345 11.25 11.0507 11.25 13.1245C11.25 17.1445 8.94375 18.7495 7.5 18.7495Z" fill="white"/>
</svg>
