<svg width="47" height="68" viewBox="0 0 47 68" fill="none" xmlns="http://www.w3.org/2000/svg">
<g style="mix-blend-mode:luminosity" clip-path="url(#clip0_205_156)">
<path d="M46.9183 13.3299L42.6514 62.3728L23.4714 67.8282L4.34422 62.3803L0.0817261 13.3299H46.9183Z" fill="#E44D26"/>
<path d="M23.5 63.6582L38.9984 59.2498L42.6446 17.3404H23.5V63.6582Z" fill="#F16529"/>
<path d="M15.2052 29.3722H23.5V23.3564H8.79724L8.93751 24.9703L10.3787 41.5484H23.5V35.5325H15.7411L15.2052 29.3722ZM16.5267 44.5564H10.6407L11.4621 54.0022L23.473 57.4229L23.5 57.4154V51.1563L23.4743 51.1633L16.9442 49.3542L16.5267 44.5564Z" fill="#EBEBEB"/>
<path d="M4.43927 0H7.419V3.02044H10.1448V0H13.1247V9.14666H10.145V6.08383H7.41918V9.14666H4.43945L4.43927 0ZM17.043 3.03325H14.4202V0H22.6477V3.03325H20.0233V9.14666H17.0435V3.03325H17.043ZM23.9535 0H27.0604L28.9716 3.21389L30.881 0H33.9892V9.14666H31.0216V4.61307L28.9716 7.86521H28.9202L26.8689 4.61307V9.14666H23.9535V0ZM35.4721 0H38.4528V6.12339H42.6431V9.14666H35.4719V0H35.4721Z" fill="white"/>
<path d="M23.4798 41.5484H30.7L30.0192 49.3505L23.4796 51.1614V57.4201L35.5 54.0022L35.5882 52.9858L36.9662 37.148L37.1092 35.5325H23.4798V41.5484ZM23.4798 29.3575V29.3722H37.6428L37.7603 28.0201L38.0276 24.9703L38.1677 23.3564H23.4798V29.3575Z" fill="white"/>
</g>
<defs>
<clipPath id="clip0_205_156">
<rect width="47" height="68" fill="white"/>
</clipPath>
</defs>
</svg>
