<svg width="54" height="54" viewBox="0 0 54 54" fill="none" xmlns="http://www.w3.org/2000/svg">
<g style="mix-blend-mode:luminosity" clip-path="url(#clip0_205_168)">
<path d="M0 0H54V54H0V0Z" fill="#F7DF1E"/>
<path d="M14.1986 45.1263L18.3309 42.6254C19.1282 44.0389 19.8534 45.2349 21.593 45.2349C23.2605 45.2349 24.312 44.5827 24.312 42.0455V24.7913H29.3866V42.1173C29.3866 47.3732 26.3056 49.7656 21.8105 49.7656C17.751 49.7656 15.3947 47.6632 14.1984 45.1259M32.1429 44.5825L36.2747 42.1902C37.3625 43.9665 38.7762 45.2714 41.2771 45.2714C43.3799 45.2714 44.7207 44.2201 44.7207 42.7701C44.7207 41.0303 43.3432 40.4139 41.0233 39.3993L39.755 38.8551C36.0937 37.2969 33.6652 35.3394 33.6652 31.2071C33.6652 27.401 36.565 24.501 41.0961 24.501C44.3222 24.501 46.6421 25.6249 48.3093 28.5609L44.3581 31.0985C43.4879 29.5399 42.5459 28.9237 41.0959 28.9237C39.6096 28.9237 38.6672 29.8662 38.6672 31.0985C38.6672 32.6208 39.6096 33.2374 41.7844 34.1799L43.053 34.7235C47.3667 36.5723 49.7952 38.4571 49.7952 42.6978C49.7952 47.2654 46.2067 49.7663 41.3857 49.7663C36.6736 49.7663 33.6287 47.5189 32.1427 44.5827" fill="black"/>
</g>
<defs>
<clipPath id="clip0_205_168">
<rect width="54" height="54" fill="white"/>
</clipPath>
</defs>
</svg>
