<svg width="68" height="68" viewBox="0 0 68 68" fill="none" xmlns="http://www.w3.org/2000/svg">
<g style="mix-blend-mode:luminosity">
<path d="M14.7464 10.8486C10.8407 16.4613 11.3268 23.7644 14.3108 29.7293L14.5292 30.1532L14.6689 30.422L14.756 30.5766L14.9117 30.855C15.0041 31.0181 15.0992 31.1801 15.1964 31.3432L15.359 31.611C15.4668 31.7842 15.5768 31.9563 15.6894 32.1279L15.8302 32.3451C15.9858 32.5773 16.1447 32.8084 16.3088 33.0363L16.3227 33.0538L16.4034 33.1627C16.5452 33.3582 16.6913 33.5516 16.8396 33.7434L17.0037 33.9522C17.136 34.1185 17.2704 34.2832 17.4069 34.4484L17.561 34.6322C17.7443 34.8479 17.9318 35.0636 18.1225 35.2739L18.1337 35.2856L18.1555 35.3095C18.3419 35.513 18.5326 35.7122 18.7266 35.9114L18.9093 36.0958C19.0591 36.2467 19.2116 36.3949 19.3651 36.5426L19.5516 36.72C19.7572 36.9134 19.9644 37.1036 20.1763 37.2884L20.1859 37.2969L20.2948 37.3894C20.4813 37.5514 20.6709 37.7108 20.8622 37.8686L21.097 38.0561C21.2532 38.1809 21.411 38.3047 21.5698 38.4258L21.8232 38.6176C21.9985 38.7467 22.1754 38.8737 22.3539 38.9985L22.5468 39.1356L22.6004 39.1738C22.7694 39.2907 22.9431 39.4028 23.1157 39.5149L23.3389 39.6637C23.6045 39.831 23.8738 39.9973 24.1458 40.1577L24.369 40.2836C24.5692 40.3989 24.7706 40.5126 24.9746 40.6231L25.3098 40.7963L25.7433 41.0215L25.8432 41.0699L26.0206 41.1554C26.2475 41.2638 26.4764 41.3706 26.7075 41.4736L26.8526 41.5384C27.1171 41.6542 27.3843 41.7653 27.6537 41.8721L27.8492 41.9486C28.0983 42.0452 28.3512 42.1393 28.6052 42.2285L28.7002 42.2615C28.9786 42.3592 29.2602 42.449 29.5433 42.5377L29.7468 42.5983C30.0347 42.6854 30.32 42.7885 30.617 42.8437C49.5045 46.2878 54.9907 31.4941 54.9907 31.4941C50.3827 37.4972 42.2041 39.0803 34.4547 37.3176C34.161 37.2512 33.8762 37.1593 33.5899 37.0754L33.3742 37.0095C33.0949 36.9243 32.8172 36.834 32.5412 36.7386L32.427 36.6977C32.1809 36.6105 31.9361 36.5196 31.6928 36.4252L31.4867 36.3444C31.2205 36.2392 30.9554 36.1292 30.694 36.015L30.5357 35.9444C30.3115 35.8436 30.0885 35.74 29.8669 35.6336L29.6735 35.5406C29.4998 35.4562 29.3282 35.3664 29.1561 35.2776L28.8113 35.0965C28.6014 34.9849 28.3958 34.8681 28.1913 34.7491L27.982 34.6327C27.7103 34.4718 27.4411 34.3067 27.1745 34.1376L26.9567 33.9926C26.7632 33.8683 26.5718 33.741 26.3824 33.6106L26.197 33.4804C26.0145 33.3519 25.8335 33.2212 25.6541 33.0884L25.4134 32.9062C25.2487 32.7802 25.0851 32.6533 24.9236 32.5231L24.7052 32.3478C24.4991 32.1789 24.2956 32.0078 24.0948 31.833L24.0279 31.7772C23.8111 31.586 23.5972 31.3915 23.3861 31.1939L23.2055 31.0197C23.0491 30.8718 22.8953 30.7211 22.7444 30.5676L22.5638 30.387C22.3715 30.1904 22.1829 29.9912 21.998 29.7888L21.9698 29.7585C21.7744 29.5446 21.5831 29.3269 21.3961 29.1056L21.2457 28.9271C21.1058 28.7588 20.9682 28.5886 20.833 28.4166L20.6816 28.228C20.5195 28.0186 20.3605 27.807 20.2045 27.5931C15.9024 21.7244 14.3565 13.6303 17.7953 6.98328M26.8696 6.11946C24.0454 10.1835 24.1984 15.6251 26.4021 19.9229C26.7707 20.6454 27.188 21.3421 27.651 22.0081C28.0739 22.6153 28.5435 23.3367 29.1051 23.8239C29.3085 24.0481 29.5216 24.267 29.7388 24.4816L29.9057 24.6468C30.1166 24.8513 30.3312 25.0527 30.5527 25.2482L30.5793 25.271L30.5857 25.2774C30.8311 25.4926 31.0845 25.6992 31.3416 25.9032L31.5132 26.0371C31.7714 26.2347 32.0344 26.4292 32.3042 26.6146L32.3271 26.6321L32.6883 26.8696L32.8594 26.9827C33.0522 27.1065 33.2472 27.2266 33.4459 27.3418L33.5288 27.3907C33.6998 27.489 33.873 27.5857 34.0467 27.6802L34.2311 27.7759L34.5934 27.9639L34.6481 27.9889C34.8973 28.1111 35.148 28.2296 35.4046 28.3411L35.5714 28.4102C35.7765 28.4968 35.9832 28.5818 36.1914 28.6615L36.457 28.7592C36.6462 28.8293 36.8353 28.8936 37.0265 28.9574L37.2836 29.0397C37.5551 29.1237 37.8239 29.2304 38.1066 29.2777C52.6894 31.6933 56.0559 20.4653 56.0559 20.4653C53.0214 24.8365 47.1442 26.9216 40.8728 25.2939C40.5956 25.2208 40.3202 25.1413 40.0467 25.0553L39.7986 24.9751C39.6048 24.9127 39.4123 24.8465 39.2211 24.7764L38.9603 24.6792C38.7516 24.5988 38.5442 24.5151 38.3382 24.4279L38.1708 24.3573C37.9144 24.2455 37.6608 24.1275 37.4101 24.0035L37.0286 23.8096L36.8087 23.6964C36.6462 23.6082 36.4846 23.5168 36.3258 23.4233L36.2105 23.358C36.0133 23.2431 35.8184 23.1241 35.6261 23.001L35.4498 22.8836L35.0715 22.6328C34.804 22.4472 34.5412 22.255 34.2831 22.0564L34.1057 21.9162C31.3607 19.7492 29.1847 16.787 28.1504 13.4284C27.0661 9.94499 27.2999 6.035 29.1784 2.86131M37.0658 2.58612C35.4009 5.03624 35.2373 8.07978 36.3927 10.786C37.6109 13.6584 40.1072 15.9115 43.0212 16.9803L43.3835 17.1052L43.5428 17.1562C43.7144 17.2104 43.885 17.2731 44.0624 17.306C52.1146 18.862 54.2985 13.1745 54.8797 12.3367C52.9667 15.0912 49.7516 15.7526 45.8065 14.7948C45.4837 14.7124 45.1653 14.614 44.8524 14.4999C44.4666 14.3627 44.0882 14.2056 43.7187 14.0292C43.0178 13.6917 42.3521 13.2856 41.7313 12.8169C38.2011 10.1384 36.0086 5.02934 38.3121 0.868057" fill="#0868AC"/>
<path d="M35.2532 51.1567H33.0081C32.9446 51.1592 32.8836 51.1821 32.8341 51.222C32.7846 51.2619 32.7493 51.3167 32.7335 51.3782L31.9366 55.0651L31.1397 58.752C31.1241 58.8136 31.0889 58.8684 31.0395 58.9083C30.9901 58.9483 30.9291 58.9711 30.8656 58.9735H29.2766C27.7047 58.9735 27.8864 57.8861 28.2083 56.3964L28.2179 56.3513L28.2529 56.1632L28.2593 56.1282L28.331 55.7457L28.4081 55.3361L28.4899 54.919L28.8522 53.1489L29.215 51.3788C29.2219 51.3517 29.2224 51.3235 29.2164 51.2962C29.2105 51.2689 29.1982 51.2435 29.1805 51.2218C29.1629 51.2002 29.1405 51.183 29.115 51.1716C29.0895 51.1602 29.0617 51.1549 29.0339 51.1562H26.7298C26.6664 51.1585 26.6054 51.1814 26.5561 51.2215C26.5068 51.2616 26.472 51.3166 26.4568 51.3782L25.9611 53.7285L25.466 56.0793L25.4649 56.0825L25.4192 56.3013C24.8487 58.9061 24.9996 61.3907 28.101 61.4688L28.1913 61.4704H33.0591C33.1226 61.468 33.1836 61.4451 33.233 61.4052C33.2824 61.3653 33.3176 61.3104 33.3333 61.2489L34.383 56.3141L35.4328 51.3788C35.4588 51.2566 35.3781 51.1572 35.2532 51.1567ZM11.211 51.1307H8.74596C8.68228 51.1332 8.62106 51.1559 8.57126 51.1957C8.52146 51.2355 8.48569 51.2901 8.46918 51.3517L8.23543 52.3834L8.00168 53.4151C7.97459 53.5367 8.05374 53.6361 8.17859 53.6361H10.6627C10.7263 53.6337 10.7875 53.6109 10.8371 53.571C10.8867 53.5311 10.922 53.4762 10.9379 53.4145L11.1637 52.3834L11.3895 51.3522C11.4155 51.2306 11.3358 51.1307 11.211 51.1307ZM10.4959 54.3416H8.01124C7.94758 54.3441 7.88641 54.3669 7.83662 54.4067C7.78683 54.4464 7.75104 54.501 7.73446 54.5626L7.38543 56.1085L7.03693 57.6539L6.93971 58.097L6.60449 59.6748L6.2698 61.2531C6.24377 61.3748 6.19012 61.5713 6.15027 61.6893C6.15027 61.6893 5.68596 63.0705 4.90555 63.0546L4.8078 63.0525L4.13258 63.0402C4.06915 63.0418 4.00735 63.0636 3.95724 63.1025C3.90713 63.1414 3.87083 63.1954 3.85368 63.2565L3.59602 64.3397L3.3389 65.4224C3.30968 65.5435 3.3883 65.6434 3.51208 65.6455C3.95462 65.6508 4.94593 65.662 5.54571 65.662C7.49487 65.662 8.52283 64.5819 9.18105 61.4741L9.9519 57.9073L10.6749 54.562C10.701 54.4414 10.6202 54.3416 10.4959 54.3416ZM56.2456 53.5054L56.1425 53.0798L56.041 52.6442L55.9895 52.4243C55.7876 51.6396 55.1953 51.1875 53.9086 51.1875L51.9058 51.1854L50.0613 51.1827H47.9857C47.9222 51.1851 47.8613 51.2079 47.8119 51.2479C47.7626 51.2878 47.7276 51.3427 47.7121 51.4043L47.6202 51.8378L47.5118 52.3499L47.4815 52.4939L46.5471 56.8714L45.6599 61.0268C45.6333 61.149 45.6248 61.2988 45.6397 61.3594C45.6546 61.4205 45.8941 61.4704 46.0185 61.4704H47.8906C48.0154 61.4704 48.1732 61.4481 48.2412 61.4205C48.3092 61.3928 48.4096 61.1479 48.4346 61.0263L48.7671 59.3799L49.1002 57.7331L49.1008 57.7304L49.1454 57.511L49.5491 55.6197L49.9056 53.9495C49.9213 53.8881 49.9564 53.8333 50.0057 53.7934C50.055 53.7535 50.1158 53.7306 50.1792 53.728L56.0702 53.7253C56.1951 53.7264 56.2737 53.627 56.2456 53.5054ZM63.8291 49.6591L63.3755 49.6607H61.4901C61.421 49.6646 61.3535 49.6834 61.2924 49.7157C61.2312 49.7481 61.1778 49.7933 61.1357 49.8482L56.9659 55.9566C56.8958 56.0596 56.8156 56.0447 56.788 55.9236L56.4809 54.578C56.4644 54.5163 56.4285 54.4616 56.3786 54.4218C56.3287 54.3821 56.2674 54.3593 56.2036 54.357H53.5234C53.3986 54.357 53.3247 54.4547 53.3587 54.5742L54.5599 58.7823C54.5939 58.9023 54.5965 59.0989 54.5657 59.22L54.0425 61.2563C54.0111 61.3774 54.0876 61.4757 54.2125 61.4757H56.8618C56.9259 61.4731 56.9876 61.4506 57.0382 61.4112C57.0889 61.3719 57.126 61.3177 57.1444 61.2563L57.6682 59.22C57.7097 59.0765 57.7749 58.9409 57.8611 58.8189L64.6303 49.835C64.7057 49.7351 64.6648 49.6538 64.5405 49.6549L63.8291 49.6591ZM42.5335 54.9286V54.9265C42.5243 54.9906 42.4925 55.0494 42.444 55.0923C42.3954 55.1353 42.3332 55.1595 42.2684 55.1607H38.87C38.752 55.1607 38.6925 55.0811 38.7101 54.9822L38.7132 54.9743L38.7111 54.9753L38.7127 54.9642L38.7281 54.9063C39.0527 54.0435 39.7136 53.4772 40.9562 53.4772C42.3555 53.4767 42.6286 54.1599 42.5335 54.9286ZM41.5363 51.0058C37.1742 51.0058 36.1404 53.6536 35.5603 56.3263C34.9807 59.0506 35.0301 61.5968 39.5446 61.5968H40.0918L40.2278 61.5963H40.2597L40.8016 61.5947H40.8111C42.0033 61.5899 43.1991 61.5809 43.6831 61.5772C43.7461 61.574 43.8065 61.5506 43.8552 61.5104C43.9039 61.4702 43.9384 61.4154 43.9535 61.3541L44.1362 60.461L44.1718 60.2873L44.3896 59.2216C44.3966 59.1946 44.3971 59.1664 44.3911 59.1391C44.3851 59.1119 44.3728 59.0864 44.3552 59.0648C44.3376 59.0432 44.3151 59.026 44.2896 59.0147C44.2641 59.0034 44.2363 58.9982 44.2085 58.9996H40.1503C38.5358 58.9996 38.0566 58.5708 38.2335 57.3097H44.7206L44.7201 57.3102L44.7243 57.3097C44.7757 57.3074 44.8252 57.2905 44.8672 57.2608C44.9091 57.2311 44.9416 57.19 44.9607 57.1423L44.9761 57.086L44.9756 57.0865C45.9388 53.4533 45.6625 51.0064 41.5363 51.0058ZM20.9185 54.9148L20.8569 55.1321L20.3671 56.8687L19.8772 58.6043C19.8572 58.6658 19.8188 58.7197 19.7673 58.7587C19.7157 58.7978 19.6534 58.8201 19.5888 58.8227H16.9963C15.0296 58.8227 14.5504 57.2842 15.0296 55.0157C15.5082 52.6952 16.447 51.2529 18.3828 51.1068C21.0285 50.907 21.5576 52.7675 20.9185 54.9148ZM22.6971 58.6893C22.6971 58.6893 23.9195 55.7207 24.1968 54.0069C24.5756 51.7124 23.4265 48.3836 18.9885 48.3836C14.5759 48.3836 12.6591 51.561 11.9281 55.0157C11.1971 58.4954 12.155 61.5464 16.5426 61.5214L20.0042 61.5087L23.239 61.497C23.3031 61.4938 23.3647 61.471 23.4154 61.4316C23.4662 61.3923 23.5036 61.3383 23.5227 61.277L24.0863 59.1276C24.1177 59.0065 24.0417 58.9077 23.9169 58.9066L23.3766 58.9034L22.8363 58.9002C22.7306 58.8997 22.67 58.8306 22.6828 58.7398L22.6971 58.6893ZM44.5421 56.7019C44.5422 56.7214 44.5383 56.7408 44.5309 56.7588C44.5234 56.7769 44.5125 56.7933 44.4987 56.8072C44.4849 56.821 44.4686 56.832 44.4505 56.8395C44.4325 56.847 44.4132 56.8509 44.3936 56.8509C44.3741 56.851 44.3547 56.8471 44.3367 56.8397C44.3186 56.8323 44.3022 56.8213 44.2884 56.8075C44.2745 56.7938 44.2635 56.7774 44.256 56.7593C44.2485 56.7413 44.2446 56.722 44.2446 56.7024C44.2445 56.663 44.2601 56.6251 44.288 56.5972C44.3158 56.5692 44.3536 56.5535 44.3931 56.5534C44.4325 56.5533 44.4704 56.569 44.4984 56.5968C44.5263 56.6246 44.542 56.6625 44.5421 56.7019Z" fill="white"/>
</g>
</svg>
