<svg width="40" height="40" viewBox="0 0 40 40" fill="none" xmlns="http://www.w3.org/2000/svg">
<circle cx="20" cy="20" r="20" fill="#FFD885"/>
<path d="M25.1216 21.0979H12.4467C12.2658 21.0979 12.0923 21.0235 11.9645 20.8912C11.8366 20.7588 11.7647 20.5793 11.7647 20.3921C11.7647 20.2049 11.8366 20.0254 11.9645 19.893C12.0923 19.7607 12.2658 19.6863 12.4467 19.6863H25.1216L20.1473 14.5397C20.0193 14.4071 19.9474 14.2274 19.9474 14.04C19.9474 13.8525 20.0193 13.6728 20.1473 13.5403C20.2754 13.4077 20.4491 13.3333 20.6302 13.3333C20.8113 13.3333 20.9849 13.4077 21.113 13.5403L27.2506 19.8924C27.3141 19.958 27.3645 20.0359 27.3989 20.1216C27.4333 20.2073 27.451 20.2993 27.451 20.3921C27.451 20.4849 27.4333 20.5769 27.3989 20.6626C27.3645 20.7484 27.3141 20.8262 27.2506 20.8918L21.113 27.2439C20.9849 27.3765 20.8113 27.4509 20.6302 27.4509C20.4491 27.4509 20.2754 27.3765 20.1473 27.2439C20.0193 27.1114 19.9474 26.9317 19.9474 26.7442C19.9474 26.5568 20.0193 26.3771 20.1473 26.2445L25.1216 21.0979Z" fill="#1D1D1D"/>
</svg>
