<svg width="89" height="73" viewBox="0 0 89 73" fill="none" xmlns="http://www.w3.org/2000/svg">
<g clip-path="url(#clip0_210_103)">
<g clip-path="url(#clip1_210_103)">
<g clip-path="url(#clip2_210_103)">
<g clip-path="url(#clip3_210_103)">
<g clip-path="url(#clip4_210_103)">
<g clip-path="url(#clip5_210_103)">
<g clip-path="url(#clip6_210_103)">
<g clip-path="url(#clip7_210_103)">
<g clip-path="url(#clip8_210_103)">
<g clip-path="url(#clip9_210_103)">
<g clip-path="url(#clip10_210_103)">
<path d="M32.9006 52.0728H37.77V54.1947H26.9268L18.5434 42.5986H10.7625V54.1947H-0.0305176V52.0728H4.83887V19.7026H17.8908C23.2455 19.7026 27.0774 20.5908 29.3866 22.3673C31.6958 24.1437 32.8504 26.9892 32.8504 30.9039C32.8504 36.595 30.3237 40.1807 25.2702 41.6611L32.9006 52.0728ZM18.1418 37.3187C21.4885 37.3187 23.7642 36.8088 24.969 35.789C26.1738 34.7693 26.7762 33.131 26.7762 30.8743C26.7762 28.6242 26.1571 27.078 24.9188 26.2359C23.6805 25.4003 21.4718 24.9825 18.2924 24.9825H10.7625V37.3187H18.1418ZM66.8859 52.0728H73.4621V54.1947H36.515V52.0728H47.6593C45.0155 50.5267 42.9305 48.4213 41.4044 45.7567C39.8851 43.0921 39.1254 40.0821 39.1254 36.7266C39.1254 31.6605 40.9058 27.4169 44.4666 23.9956C48.0342 20.5744 52.5354 18.8638 57.9704 18.8638C63.4121 18.8638 67.9568 20.8376 71.6047 24.7852L67.8397 28.8314C66.1664 27.2524 64.5834 26.1504 63.0908 25.5253C61.6049 24.9003 59.8579 24.5878 57.8499 24.5878C54.3025 24.5878 51.3239 25.7128 48.9143 27.963C46.5047 30.2197 45.3 33.1014 45.3 36.6082C45.3 40.1084 46.4947 43.0329 48.8842 45.3817C51.2804 47.7371 54.1184 48.9148 57.3981 48.9148C59.4396 48.9148 61.1966 48.5759 62.6691 47.8983C64.1416 47.2272 65.6811 46.1515 67.2875 44.6711L71.1027 48.52C69.6301 50.0991 68.2246 51.2833 66.8859 52.0728Z" fill="#FFD885"/>
</g>
</g>
</g>
</g>
</g>
</g>
</g>
<path d="M51.1646 -0.000244141C71.6888 -0.000244141 88.3271 16.3547 88.3271 36.5293C88.3271 56.7039 71.6888 73.0589 51.1646 73.0589C38.969 73.0589 28.1455 67.2845 21.3694 58.3652H23.4184C29.9321 66.352 39.9407 71.4659 51.1646 71.4659C70.7937 71.4659 86.7066 55.8244 86.7063 36.5293C86.7063 17.2346 70.7937 1.59275 51.1646 1.59275C39.9407 1.59275 29.9321 6.70659 23.4184 14.6934H21.3694C28.1455 5.77414 38.969 -0.000244141 51.1646 -0.000244141Z" fill="#FFD885"/>
</g>
</g>
</g>
</g>
<defs>
<clipPath id="clip0_210_103">
<rect width="89" height="73" fill="white"/>
</clipPath>
<clipPath id="clip1_210_103">
<rect width="119.205" height="73" fill="white" transform="translate(-22.8868 0.0292969)"/>
</clipPath>
<clipPath id="clip2_210_103">
<rect width="118.92" height="73.0591" fill="white" transform="translate(-22.7443 -0.000244141)"/>
</clipPath>
<clipPath id="clip3_210_103">
<rect width="118.92" height="73.0591" fill="white" transform="translate(-22.7443 -0.000244141)"/>
</clipPath>
<clipPath id="clip4_210_103">
<rect width="73.4926" height="35.3309" fill="white" transform="translate(-0.0305176 18.8638)"/>
</clipPath>
<clipPath id="clip5_210_103">
<rect width="73.4926" height="35.3309" fill="white" transform="translate(-0.0305176 18.8638)"/>
</clipPath>
<clipPath id="clip6_210_103">
<rect width="73.4926" height="35.3309" fill="white" transform="translate(-0.0305176 18.8638)"/>
</clipPath>
<clipPath id="clip7_210_103">
<rect width="73.4926" height="35.3309" fill="white" transform="translate(-0.0305176 18.8638)"/>
</clipPath>
<clipPath id="clip8_210_103">
<rect width="73.4926" height="35.3309" fill="white" transform="translate(-0.0305176 18.8638)"/>
</clipPath>
<clipPath id="clip9_210_103">
<rect width="73.4926" height="35.3309" fill="white" transform="translate(-0.0305176 18.8638)"/>
</clipPath>
<clipPath id="clip10_210_103">
<rect width="73.4926" height="35.3309" fill="white" transform="translate(-0.0305176 18.8638)"/>
</clipPath>
</defs>
</svg>
