<svg width="89" height="73" viewBox="0 0 89 73" fill="none" xmlns="http://www.w3.org/2000/svg">
<g clip-path="url(#clip0_202_6)">
<path d="M32.9006 52.0732H37.77V54.195H26.9269L18.5435 42.5989H10.7625V54.195H-0.0304565V52.0732H4.83893V19.7029H17.8909C23.2455 19.7029 27.0775 20.5911 29.3867 22.3676C31.6959 24.144 32.8504 26.9895 32.8504 30.9042C32.8504 36.5953 30.3237 40.181 25.2703 41.6614L32.9006 52.0732ZM18.1419 37.319C21.4885 37.319 23.7643 36.8091 24.9691 35.7894C26.1739 34.7696 26.7763 33.1313 26.7763 30.8746C26.7763 28.6245 26.1571 27.0783 24.9189 26.2362C23.6806 25.4006 21.4718 24.9828 18.2925 24.9828H10.7625V37.319H18.1419ZM66.886 52.0732H73.4621V54.195H36.515V52.0732H47.6594C45.0155 50.527 42.9306 48.4216 41.4045 45.757C39.8851 43.0924 39.1254 40.0824 39.1254 36.7269C39.1254 31.6608 40.9059 27.4172 44.4667 23.9959C48.0342 20.5747 52.5355 18.8641 57.9705 18.8641C63.4121 18.8641 67.9569 20.8379 71.6047 24.7855L67.8397 28.8317C66.1664 27.2527 64.5834 26.1507 63.0908 25.5256C61.6049 24.9006 59.858 24.5881 57.85 24.5881C54.3025 24.5881 51.324 25.7131 48.9144 27.9633C46.5048 30.22 45.3 33.1017 45.3 36.6085C45.3 40.1087 46.4948 43.0332 48.8843 45.382C51.2805 47.7374 54.1185 48.9151 57.3982 48.9151C59.4396 48.9151 61.1966 48.5762 62.6692 47.8986C64.1417 47.2275 65.6812 46.1518 67.2876 44.6714L71.1027 48.5203C69.6302 50.0994 68.2246 51.2836 66.886 52.0732Z" fill="white"/>
<path d="M51.1647 0C71.6889 0 88.3272 16.355 88.3272 36.5296C88.3272 56.7041 71.6889 73.0591 51.1647 73.0591C38.969 73.0591 28.1456 67.2847 21.3694 58.3654H23.4185C29.9322 66.3523 39.9408 71.4661 51.1647 71.4661C70.7938 71.4661 86.7066 55.8246 86.7063 36.5296C86.7063 17.2348 70.7938 1.593 51.1647 1.593C39.9408 1.593 29.9322 6.70684 23.4185 14.6937H21.3694C28.1456 5.77439 38.969 0 51.1647 0Z" fill="white"/>
</g>
<defs>
<clipPath id="clip0_202_6">
<rect width="89" height="73" fill="white"/>
</clipPath>
</defs>
</svg>
