<svg width="20" height="18" viewBox="0 0 20 18" fill="none" xmlns="http://www.w3.org/2000/svg">
<path d="M17.03 9.89989H0.869498C0.638893 9.89989 0.417733 9.80508 0.25467 9.63631C0.0916077 9.46755 0 9.23866 0 9C0 8.76134 0.0916077 8.53244 0.25467 8.36368C0.417733 8.19492 0.638893 8.10011 0.869498 8.10011H17.03L10.6879 1.53814C10.5246 1.36917 10.4329 1.13999 10.4329 0.901022C10.4329 0.662056 10.5246 0.432878 10.6879 0.263903C10.8511 0.0949287 11.0726 0 11.3035 0C11.5344 0 11.7558 0.0949287 11.9191 0.263903L19.7446 8.36288C19.8255 8.44647 19.8898 8.54578 19.9336 8.6551C19.9774 8.76443 20 8.88163 20 9C20 9.11837 19.9774 9.23557 19.9336 9.3449C19.8898 9.45422 19.8255 9.55353 19.7446 9.63712L11.9191 17.7361C11.7558 17.9051 11.5344 18 11.3035 18C11.0726 18 10.8511 17.9051 10.6879 17.7361C10.5246 17.5671 10.4329 17.3379 10.4329 17.099C10.4329 16.86 10.5246 16.6308 10.6879 16.4619L17.03 9.89989Z" fill="white"/>
</svg>
